<?xml version="1.0" standalone="no"?>
<!DOCTYPE svg PUBLIC "-//W3C//DTD SVG 20010904//EN"
 "http://www.w3.org/TR/2001/REC-SVG-20010904/DTD/svg10.dtd">
<svg version="1.0" xmlns="http://www.w3.org/2000/svg"
 width="700.000000pt" height="700.000000pt" viewBox="0 0 700.000000 700.000000"
 preserveAspectRatio="xMidYMid meet">
<metadata>
Created by potrace 1.11, written by Peter Selinger 2001-2013
</metadata>
<g transform="translate(0.000000,700.000000) scale(0.100000,-0.100000)"
fill="#000000" stroke="none">
<path d="M1135 6989 c-504 -74 -915 -418 -1070 -896 -14 -44 -28 -91 -30 -104
-12 -59 -17 -88 -25 -139 -11 -67 -8 -4705 3 -4740 4 -14 10 -40 13 -58 3 -18
16 -68 28 -110 130 -432 461 -761 892 -888 188 -55 50 -52 2579 -50 1287 1
2354 5 2370 9 17 5 50 13 75 18 120 26 288 93 385 154 22 14 47 28 55 32 8 3
17 9 20 12 3 4 30 25 60 47 71 52 182 163 234 234 22 30 43 57 46 60 14 13 73
117 104 183 48 102 73 176 102 312 2 11 8 45 12 75 4 30 7 1106 7 2390 l0
2335 -22 94 c-125 525 -493 891 -1023 1017 -71 17 -205 18 -2415 20 -1295 1
-2367 -2 -2400 -7z m775 -1103 c195 -49 371 -202 446 -387 96 -237 47 -505
-126 -695 -79 -87 -201 -159 -320 -190 -85 -23 -234 -22 -320 0 -200 53 -372
202 -447 388 -50 124 -61 278 -29 408 19 74 75 193 113 236 14 16 32 38 42 49
32 40 129 112 192 143 55 27 133 51 204 64 46 9 184 0 245 -16z m3501 -3500
c181 -46 339 -174 423 -341 179 -356 4 -786 -374 -917 -70 -24 -136 -33 -230
-32 -256 4 -497 174 -591 418 -34 88 -41 130 -42 231 -1 94 6 133 34 218 106
319 452 506 780 423z"/>
</g>
</svg>
